<?xml version="1.0" encoding="UTF-8"?>
<svg enable-background="new 0 0 595.3 841.9" version="1.1" viewBox="0 0 595.3 841.9" xml:space="preserve" xmlns="http://www.w3.org/2000/svg">
<style type="text/css">
	.st0{fill-rule:evenodd;clip-rule:evenodd;fill:#ffffff;}
</style>

<g transform="translate(269.81 -650.63)">
	<path class="st0" d="m-94.2 934.2c1.7 55.3-24.7 101-59 102s-63.6-42.9-65.3-98.2 24.7-101 59-102c34.4-1.1 63.6 42.9 65.3 98.2z"/>
	<path class="st0" d="m191.8 1052.5c-40.3 37.9-54 88.9-30.3 113.9 23.5 25 75.2 14.6 115.5-23.3s54-88.9 30.3-113.9c-23.5-25-75.3-14.5-115.5 23.3z"/>
	<path class="st0" d="m67.5 891.7c-9.9 54.4-45.3 93.6-79.1 87.3-33.7-6.2-53.1-55.2-43.2-109.7 9.9-54.4 45.3-93.6 79.1-87.3 33.8 6.1 53.1 55.2 43.2 109.7z"/>
	<path class="st0" d="m106.8 908c-31.5 45.5-34 98.2-5.9 117.7 28.3 19.5 76.7-1.6 108.1-47 31.5-45.5 34-98.2 5.9-117.7-28.3-19.6-76.7 1.4-108.1 47z"/>
	<path class="st0" d="m-40.5 1042.5c-13 9.9-66 38.7-96.3 43.4s-69.4 13.9-84.9 65.6c-15.6 51.8 26.6 94 61 106.1 34.3 12 100.1 32 142.6 56.9 42.5 25 101.5 43.8 134.5 1.8 33-42.1 15.8-84.6-0.4-111.4s-33.7-94.3-36-122.8c-2.3-28.6-45.4-97-120.5-39.6z"/>
</g>
</svg>
